<?xml version="1.0" encoding="iso-8859-1"?>
<!-- Uploaded to: SVG Repo, www.svgrepo.com, Generator: SVG Repo Mixer Tools -->
<svg version="1.1" id="Layer_1" xmlns="http://www.w3.org/2000/svg" xmlns:xlink="http://www.w3.org/1999/xlink" 
	 viewBox="0 0 512 512" xml:space="preserve">
<path style="fill:#CFCDD2;" d="M512,444.632c0,22.323-18.098,40.421-40.421,40.421H40.421C18.098,485.053,0,466.955,0,444.632
	V67.368c0-22.323,18.098-40.421,40.421-40.421h431.158c22.323,0,40.421,18.098,40.421,40.421V444.632z"/>
<path style="fill:#AEADB3;" d="M471.579,26.947H256v458.105h215.579c22.323,0,40.421-18.098,40.421-40.421V67.368
	C512,45.045,493.902,26.947,471.579,26.947z"/>
<path style="fill:#DFDFE1;" d="M0,148.211v296.421c0,22.323,18.098,40.421,40.421,40.421h431.158
	c22.323,0,40.421-18.098,40.421-40.421V148.211H0z"/>
<path style="fill:#CFCDD2;" d="M256,148.211v336.842h215.579c22.323,0,40.421-18.098,40.421-40.421V148.211H256z"/>
<rect x="256" y="67.368" style="fill:#828186;" width="215.579" height="40.421"/>
<circle style="fill:#FF4F19;" cx="61.498" cy="87.579" r="26.947"/>
<path style="fill:#98C8ED;" d="M0,148.211v296.421c0,22.323,18.098,40.421,40.421,40.421h80.842V148.211H0z"/>
<polygon style="fill:#FF4F19;" points="390.75,309.109 390.741,222.318 303.941,222.298 333.056,251.415 201.289,383.184 
	229.869,411.764 361.638,279.997 "/>
<polygon style="fill:#FC0023;" points="390.75,309.109 390.741,222.318 303.941,222.298 333.056,251.415 256,328.471 256,385.634 
	361.638,279.997 "/>
</svg>